<svg width="21" height="19" viewBox="0 0 21 19" fill="none" xmlns="http://www.w3.org/2000/svg">
<path d="M1.80257 0.486389L19.9776 0.486389C20.2454 0.486389 20.5023 0.592771 20.6916 0.782131C20.881 0.971491 20.9874 1.22832 20.9874 1.49612V17.6517C20.9874 17.9195 20.881 18.1764 20.6916 18.3657C20.5023 18.5551 20.2454 18.6615 19.9776 18.6615H1.80257C1.53478 18.6615 1.27795 18.5551 1.08859 18.3657C0.899228 18.1764 0.792847 17.9195 0.792847 17.6517L0.792847 1.49612C0.792847 1.22832 0.899228 0.971491 1.08859 0.782131C1.27795 0.592771 1.53478 0.486389 1.80257 0.486389ZM18.9679 4.76561L10.9628 11.9347L2.8123 4.7434L2.8123 16.642H18.9679V4.76561ZM3.32827 2.50584L10.9517 9.23264L18.4651 2.50584L3.32827 2.50584Z" fill="white"/>
</svg>
