<svg width="19" height="21" viewBox="0 0 19 21" fill="none" xmlns="http://www.w3.org/2000/svg">
<path d="M16.9586 8.55442H17.9683C18.2361 8.55442 18.493 8.6608 18.6823 8.85016C18.8717 9.03953 18.9781 9.29635 18.9781 9.56415V19.6614C18.9781 19.9292 18.8717 20.186 18.6823 20.3754C18.493 20.5648 18.2361 20.6711 17.9683 20.6711H1.8127C1.54491 20.6711 1.28808 20.5648 1.09872 20.3754C0.90936 20.186 0.802979 19.9292 0.802979 19.6614L0.802979 9.56415C0.802979 9.29635 0.90936 9.03953 1.09872 8.85016C1.28808 8.6608 1.54491 8.55442 1.8127 8.55442H2.82243V7.5447C2.82243 6.6165 3.00525 5.6974 3.36046 4.83986C3.71566 3.98232 4.23629 3.20314 4.89262 2.54681C5.54896 1.89047 6.32814 1.36984 7.18568 1.01464C8.04322 0.659433 8.96232 0.476612 9.89052 0.476612C10.8187 0.476612 11.7378 0.659433 12.5954 1.01464C13.4529 1.36984 14.2321 1.89047 14.8884 2.54681C15.5447 3.20314 16.0654 3.98232 16.4206 4.83986C16.7758 5.6974 16.9586 6.6165 16.9586 7.5447V8.55442ZM2.82243 10.5739L2.82243 18.6517H16.9586V10.5739L2.82243 10.5739ZM8.88079 12.5933H10.9002L10.9002 16.6322H8.88079L8.88079 12.5933ZM14.9391 8.55442V7.5447C14.9391 6.20572 14.4072 4.92158 13.4604 3.97477C12.5136 3.02797 11.2295 2.49606 9.89052 2.49606C8.55153 2.49606 7.2674 3.02797 6.32059 3.97477C5.37379 4.92158 4.84188 6.20572 4.84188 7.5447L4.84188 8.55442H14.9391Z" fill="white"/>
</svg>
